<?xml version="1.0" encoding="UTF-8"?>
<svg id="uuid-cd6fb994-127f-4da4-a900-f1154b55c6c4" data-name="Layer 1" xmlns="http://www.w3.org/2000/svg" viewBox="0 0 496 496">
  <path d="M202.47,1.67c-4.66-1.11-9.52-1.67-14.47-1.67-34.56,0-62.68,28.14-62.68,62.74,0,20.2,9.8,39.29,26.21,51.06,3.14,2.25,3.86,6.63,1.6,9.77-2.25,3.14-6.63,3.86-9.77,1.6-20.06-14.4-32.04-37.74-32.04-62.44,0-5.89.69-11.62,1.95-17.14-35.14,9.46-60.45,41.65-60.45,79.01,0,11.67,2.42,22.95,7.18,33.54,1.59,3.52.01,7.67-3.51,9.26-.93.42-1.91.62-2.87.62-2.67,0-5.22-1.54-6.39-4.13-3.8-8.43-6.31-17.24-7.54-26.3C15.3,151.45,0,177.33,0,205.96c0,16.7,5.28,32.88,14.99,46.23,10.94-8.22,24-13.19,37.82-14.25,3.85-.3,7.22,2.59,7.51,6.45s-2.59,7.22-6.45,7.51C23.67,254.21,0,279.82,0,310.19c0,25.07,15.98,47.07,39.01,55.17.71-11.53,3.46-22.69,8.22-33.27,1.59-3.52,5.73-5.1,9.26-3.51,3.53,1.59,5.1,5.73,3.51,9.26-4.77,10.59-7.18,21.87-7.18,33.54,0,37.36,25.31,69.56,60.45,79.01-1.26-5.51-1.95-11.24-1.95-17.14,0-24.7,11.98-48.04,32.04-62.44,3.14-2.25,7.51-1.54,9.77,1.61s1.54,7.51-1.6,9.77c-16.41,11.78-26.21,30.87-26.21,51.06,0,34.59,28.12,62.74,62.68,62.74,4.95,0,9.81-.56,14.45-1.67,16.78-3.96,28.04-18.2,28.04-35.45v-55.08c-3.75,4.16-8.17,7.77-13.16,10.66-8.29,4.78-17.73,7.27-27.25,7.27-2.81,0-5.62-.22-8.41-.65-3.82-.6-6.43-4.18-5.83-8,.6-3.82,4.18-6.43,8-5.83,9.25,1.45,18.42-.25,26.49-4.91,12.72-7.36,20.44-21.04,20.16-35.72v-60.67h-32.5s-.09,0-.14,0c-8.17-.15-15.77,4.11-19.82,11.16-2.6,4.49-3.54,9.55-2.73,14.67.61,3.82-2,7.4-5.81,8.01-.37.06-.74.09-1.11.09-3.38,0-6.36-2.46-6.9-5.9-1.3-8.21.27-16.68,4.43-23.86,6.57-11.42,18.88-18.36,32.09-18.16h0s32.5,0,32.5,0v-87.89h-32.5c-.2,0-.4,0-.6,0-13,0-25.02-6.92-31.5-18.18-4.15-7.16-5.72-15.63-4.41-23.85.61-3.82,4.2-6.42,8.01-5.81,3.82.61,6.42,4.19,5.81,8.01-.81,5.12.12,10.18,2.71,14.65,4.06,7.07,11.64,11.32,19.84,11.18.05,0,.09,0,.14,0h0s32.5,0,32.5,0v-60.67c.27-14.68-7.45-28.36-20.17-35.72-8.07-4.65-17.23-6.35-26.49-4.9-3.82.59-7.4-2.01-8-5.83-.6-3.82,2.01-7.4,5.83-8,12.27-1.92,24.93.43,35.65,6.61,5,2.89,9.42,6.51,13.17,10.67v-55.12c0-17.23-11.26-31.46-28.02-35.42h0ZM113.05,297.01c-1.07.59-2.23.87-3.36.87-2.47,0-4.87-1.31-6.14-3.63-1.86-3.39-.62-7.64,2.76-9.51,13.41-7.37,21.75-21.46,21.75-36.76s-8.33-29.35-21.75-36.73c-3.39-1.86-4.62-6.12-2.76-9.51s6.12-4.62,9.51-2.76c17.89,9.83,29,28.61,29,49s-11.11,39.19-29,49.03Z" style="fill: #ff1686;"/>
  <rect x="244.49" y="204.05" width="58.05" height="87.89" style="fill: #8ace00;"/>
  <path d="M344.11,169.85v156.3c0,4.06-3.32,7.37-7.4,7.37h-92.22v-27.57h65.05c3.87,0,7-3.13,7-7v-101.89c0-3.87-3.13-7-7-7h-65.05v-27.57h92.22c4.08,0,7.4,3.3,7.4,7.37h0ZM384.03,222.07h-25.92v-14h25.92c3.87,0,7,3.13,7,7s-3.13,7-7,7ZM336.73,117.67c3.04-10.47,12.72-18.14,24.17-18.14,13.88,0,25.17,11.28,25.17,25.14s-11.29,25.17-25.17,25.17c-11.45,0-21.13-7.69-24.17-18.17h-17.47v16.81h-14v-23.81c0-3.87,3.13-7,7-7h24.47ZM379.99,175.16l17.65-30.55c1.25-2.16,3.56-3.5,6.06-3.5h15c3.04-10.48,12.72-18.17,24.17-18.17,13.88,0,25.17,11.29,25.17,25.17s-11.29,25.14-25.17,25.14c-11.45,0-21.13-7.68-24.17-18.14h-10.97l-17.65,30.55c-1.25,2.16-3.56,3.5-6.06,3.5h-25.92v-14h21.88,0ZM384.03,287.93h-25.92v-14h25.92c3.87,0,7,3.13,7,7s-3.13,7-7,7ZM338.58,460.2c0,13.86-11.29,25.14-25.17,25.14s-25.17-11.28-25.17-25.14c0-11.45,7.69-21.13,18.17-24.17v-23.61l-30.57-17.65c-2.17-1.25-3.5-3.56-3.5-6.06v-41.19h14v37.14l30.57,17.65c2.17,1.25,3.5,3.56,3.5,6.06v27.65c10.48,3.04,18.17,12.72,18.17,24.17h0ZM468.05,347.88c0,13.88-11.29,25.17-25.17,25.17-11.45,0-21.13-7.69-24.17-18.17h-15c-2.5,0-4.81-1.33-6.06-3.5l-17.65-30.55h-21.88v-14h25.92c2.5,0,4.81,1.33,6.06,3.5l17.65,30.55h10.97c3.04-10.47,12.72-18.14,24.17-18.14,13.88,0,25.17,11.28,25.17,25.14h0ZM496,247.99c0,13.88-11.29,25.17-25.17,25.17-11.44,0-21.11-7.67-24.17-18.14h-88.56v-14h88.54c3.03-10.48,12.72-18.17,24.18-18.17,13.88,0,25.17,11.28,25.17,25.14h0ZM386.07,371.33c0,13.86-11.29,25.14-25.17,25.14-11.45,0-21.13-7.67-24.17-18.14h-24.47c-3.87,0-7-3.13-7-7v-23.81h14v16.81h17.47c3.04-10.48,12.72-18.17,24.17-18.17,13.88,0,25.17,11.29,25.17,25.17h0ZM272.34,148.48v-41.19c0-2.5,1.33-4.81,3.5-6.06l30.57-17.65v-23.6c-10.48-3.04-18.17-12.72-18.17-24.17,0-13.86,11.29-25.14,25.17-25.14s25.17,11.28,25.17,25.14c0,11.45-7.69,21.13-18.17,24.17v27.65c0,2.5-1.33,4.81-3.5,6.06l-30.57,17.65v37.15h-14Z" style="fill: #00bfff;"/>
</svg>